<svg width="105" height="82" viewBox="0 0 105 82" fill="none" xmlns="http://www.w3.org/2000/svg">
<path d="M17.5 63.5C11.5 65 8.5 65 -3.05176e-05 64.0001C7 79 15.8275 75 25.5 72.5C22 70 19.5 66.5 17.5 63.5Z" fill="white"/>
<path d="M49 50C43.8243 54.0132 39.621 56.6705 33.5 59C36 62 39.5 64.5 44 66.5C49.5 65 51.2665 63.6193 55.5 61C58.5887 59.089 60.3278 57.96 63 55.5C65.1356 53.534 66.2162 52.29 68 50C69.7305 47.7784 72 44 72 44C72 44 74.5 39 75.5 36C74.5 29 72 22 65 18.5C65 22 64.9633 24.1954 64 28C62.8417 32.5744 61.5305 35.0172 59 39C55.8866 43.9002 53.5879 46.4426 49 50Z" fill="white"/>
<path d="M27.5 50C28.5571 53.8792 29.9283 55.9093 32.5 59C35.8974 63.0831 38.5838 64.9887 43.5 67C57 72.5232 72.4999 67 78.4999 61.5C78.4999 61.5 68 79.4444 49 80.5C23 77.5 12 60.5 13 40C16.5 2.5 49 1.00001 49 1.00001C49 1.00001 82.5 -0.499992 76 35C74 25 71.6972 21.812 65 17.5C48.8297 7.08871 20.9597 26 27.5 50Z" fill="#A0C655"/>
<path d="M105 34C101 60.5 84 82 51 81C73.5 78 84 56 86 45C86.7273 41 87.213 38.6506 90 36C94.2822 31.9273 105 34 105 34Z" fill="white"/>
</svg>
