<svg width="400" height="113" viewBox="0 0 400 113" fill="none" xmlns="http://www.w3.org/2000/svg">
<path d="M353.5 70H334C335.5 92 350 96 366 96C382.481 96 399.163 91.5 400 71C400 45 358 53 355.5 40C354.281 33.6632 366 33 372 34.5C376.5 36.5 376.5 38.5 379 41C381 45 398 44 398 44C396.5 26 382.5 19 366 19C351.237 19 337 25.5 336 42C336 42 335 57 351 62C362.5 67 380 65 380 74.5C379.5 79 373.588 81.2054 368 81C360.897 80.739 354.5 79 353.5 70Z" fill="#347144"/>
<path d="M299.001 95.9822C329.327 95.1836 330 71.7333 330 71.7333C307.001 68.7022 314.501 77.2904 298.001 79.3111C284.002 79.3111 284 63 284 63H332V49H265.003V61.6296C265.003 61.6296 264.003 96.9039 299.001 95.9822Z" fill="#347144"/>
<path d="M312 50H332C332 50 332 19 298.5 19C265 19 265 50 265 50H285C285 50 284.5 35.5333 298 35.5333C311.5 35.5333 312 50 312 50Z" fill="#347144"/>
<path d="M191 113V57.5H210.5C210.5 57.5 210.5 79.9143 226.5 79C242.5 78.0857 241.5 57.5 241.5 57.5H261C261 57.5 264 95 231.5 96C218 97 210.5 85 210.5 85V103C210.5 108.523 206.023 113 200.5 113H191Z" fill="#347144"/>
<path d="M225.024 35.6234C208.036 37.1818 210.534 59 210.534 59H191.047C190.048 30.4286 204.979 19 225.024 19C248.009 19 261 30.4286 261 59H241.513C241.513 59 242.013 34.0649 225.024 35.6234Z" fill="#347144"/>
<path d="M141.5 70H122C123.5 92 138 96 154 96C170.481 96 187.163 91.5 188 71C188 45 146 53 143.5 40C142.281 33.6632 154 33 160 34.5C164.5 36.5 164.5 38.5 167 41C169 45 186 44 186 44C184.5 26 170.5 19 154 19C139.237 19 125 25.5 124 42C124 42 123 57 139 62C150.5 67 168 65 168 74.5C167.5 79 161.588 81.2054 156 81C148.897 80.739 142.5 79 141.5 70Z" fill="#347144"/>
<path d="M37.5 81.5C31.5 83 28.5 83 20 82.0001C27 97 35.8275 93 45.5 90.5C42 88 39.5 84.5 37.5 81.5Z" fill="#347144"/>
<path d="M69 68C63.8243 72.0132 59.621 74.6705 53.5 77C56 80 59.5 82.5 64 84.5C69.5 83 71.2665 81.6193 75.5 79C78.5887 77.089 80.3278 75.96 83 73.5C85.1356 71.534 86.2162 70.29 88 68C89.7305 65.7784 92 62 92 62C92 62 94.5 57 95.5 54C94.5 47 92 40 85 36.5C85 40 84.9633 42.1954 84 46C82.8417 50.5744 81.5305 53.0172 79 57C75.8866 61.9002 73.5879 64.4426 69 68Z" fill="#347144"/>
<path d="M47.5 68C48.5571 71.8792 49.9283 73.9093 52.5 77C55.8974 81.0831 58.5838 82.9887 63.5 85C77 90.5232 92.4999 85 98.4999 79.5C98.4999 79.5 88 97.4444 69 98.5C43 95.5 32 78.5 33 58C36.5 20.5 69 19 69 19C69 19 102.5 17.5 96 53C94 43 91.6972 39.812 85 35.5C68.8297 25.0887 40.9597 44 47.5 68Z" fill="#A0C655"/>
<path d="M125 52C121 78.5 104 100 71 99C93.5 96 104 74 106 63C106.727 59 107.213 56.6507 110 54C114.282 49.9273 125 52 125 52Z" fill="#347144"/>
<path d="M0 21V96H19V28.8C19 24.4922 15.5078 21 11.2 21H0Z" fill="#347144"/>
<path d="M0 15V0H11.2C15.5078 0 19 3.49218 19 7.8V15H0Z" fill="#347144"/>
</svg>
